<?xml version="1.0" standalone="no"?>
<!DOCTYPE svg PUBLIC "-//W3C//DTD SVG 20010904//EN"
 "http://www.w3.org/TR/2001/REC-SVG-20010904/DTD/svg10.dtd">
<svg version="1.0" xmlns="http://www.w3.org/2000/svg"
 width="1080.000000pt" height="1080.000000pt" viewBox="0 0 1080.000000 1080.000000"
 preserveAspectRatio="xMidYMid meet">

<g transform="translate(0.000000,1080.000000) scale(0.100000,-0.100000)"
fill="#000000" stroke="none">
<path d="M4977 10292 c-12 -13 -17 -37 -17 -83 0 -62 23 -229 34 -247 3 -4 14
-64 26 -133 11 -68 23 -133 26 -144 10 -45 42 -207 63 -315 20 -107 25 -145
36 -260 20 -215 21 -210 -39 -210 -98 0 -128 -49 -81 -138 14 -28 33 -53 41
-56 26 -10 16 -36 -13 -36 -16 0 -57 -7 -93 -16 -36 -9 -101 -24 -145 -34
-126 -29 -341 -91 -410 -119 -11 -5 -40 -16 -65 -25 -25 -10 -88 -38 -140 -64
-52 -26 -100 -46 -107 -46 -7 1 -13 -3 -13 -10 0 -6 -10 -16 -22 -22 -23 -10
-34 -4 -113 65 -28 24 -130 61 -169 61 -48 0 -79 -33 -72 -76 7 -32 5 -33 -31
-39 -62 -11 -121 -38 -134 -63 -18 -32 -1 -73 38 -93 l31 -16 -31 -49 c-18
-27 -35 -50 -39 -52 -5 -2 -8 -10 -8 -17 0 -8 -6 -20 -12 -27 -44 -47 -48 -89
-13 -124 18 -18 31 -23 50 -18 31 8 31 1 4 -43 -17 -27 -24 -32 -31 -21 -7 10
-8 8 -4 -5 3 -11 -7 -36 -27 -65 -46 -68 -51 -77 -104 -182 -26 -52 -52 -102
-58 -110 -6 -8 -20 -35 -30 -60 -11 -25 -22 -47 -25 -50 -3 -3 -15 -23 -28
-45 -121 -209 -146 -488 -97 -1080 8 -99 15 -185 15 -191 0 -6 -15 -8 -42 -5
-86 12 -249 -5 -335 -34 l-83 -28 -34 27 c-19 14 -38 26 -41 26 -4 0 -24 14
-45 30 -21 17 -43 30 -49 30 -6 0 -11 3 -11 8 0 4 -17 16 -37 27 -21 11 -83
46 -138 79 -90 53 -494 256 -509 256 -3 0 -39 15 -79 34 -81 39 -156 69 -302
121 -55 19 -109 39 -120 44 -11 5 -45 17 -75 26 -30 10 -68 23 -85 30 -50 20
-124 45 -240 82 -60 19 -126 40 -145 48 -19 7 -53 19 -75 25 -22 7 -56 19 -75
27 -30 14 -37 14 -60 2 -34 -20 -39 -69 -8 -88 22 -14 183 -74 248 -93 19 -5
39 -14 44 -19 6 -5 17 -9 25 -9 8 0 51 -13 95 -29 45 -16 119 -41 166 -56 47
-15 99 -33 115 -40 54 -22 170 -65 178 -65 5 0 33 -11 63 -25 30 -14 59 -25
65 -25 6 0 43 -16 83 -35 40 -19 76 -35 80 -35 6 0 99 -43 306 -143 129 -62
414 -221 466 -260 23 -18 51 -38 62 -46 19 -13 18 -16 -36 -60 -51 -40 -95
-84 -173 -173 l-24 -27 -90 15 c-67 12 -135 14 -265 11 -179 -5 -521 -41 -552
-58 -10 -5 -33 -9 -52 -9 -19 0 -45 -4 -58 -9 -13 -5 -84 -24 -158 -41 -74
-18 -144 -37 -154 -42 -11 -6 -51 -19 -90 -29 -89 -23 -154 -43 -186 -56 -14
-5 -90 -29 -170 -53 -147 -44 -190 -68 -190 -108 0 -10 5 -23 12 -30 14 -14
72 -16 96 -3 9 5 31 10 47 12 17 2 35 6 40 10 11 8 181 63 250 81 22 5 50 14
62 19 60 23 380 113 463 129 25 5 91 16 148 25 56 8 122 19 145 24 115 25 611
31 634 7 2 -1 -10 -29 -26 -62 -37 -73 -76 -183 -90 -249 -6 -27 -17 -80 -24
-116 -10 -47 -11 -72 -4 -85 32 -59 93 -40 136 44 11 22 26 44 31 47 6 4 16
18 21 32 12 33 15 29 23 -32 12 -102 44 -224 85 -318 22 -53 41 -99 41 -102 0
-19 125 -145 145 -145 29 0 63 30 70 63 l6 32 32 -39 c46 -58 136 -144 180
-172 43 -28 48 -44 13 -44 -38 0 -56 -10 -72 -42 -17 -34 -10 -86 14 -104 20
-15 9 -31 -28 -39 -17 -4 -30 -10 -30 -15 0 -14 64 -89 82 -95 10 -4 32 -26
48 -51 17 -24 35 -44 40 -44 6 0 10 -5 10 -10 0 -6 15 -28 34 -48 55 -60 176
-215 176 -226 0 -5 6 -17 14 -25 27 -31 138 -253 142 -285 20 -149 11 -253
-25 -293 -9 -10 -22 -31 -30 -46 -8 -15 -32 -46 -53 -69 -21 -23 -36 -43 -33
-46 10 -10 -45 -42 -73 -42 -53 0 -169 -60 -157 -81 4 -5 19 -9 36 -9 26 0 39
-14 119 -122 50 -67 90 -129 90 -137 3 -101 3 -179 2 -298 -2 -133 -3 -144
-24 -163 -23 -21 -58 -20 -98 1 -23 13 -125 39 -151 39 -52 0 -141 -44 -184
-93 -39 -42 -44 -54 -50 -111 -8 -72 1 -155 21 -204 14 -35 45 -43 79 -18 17
12 18 18 7 66 -49 212 51 301 254 226 106 -39 125 -36 192 27 62 57 106 95
166 142 21 17 44 35 50 40 28 26 133 105 139 105 7 0 145 -105 183 -141 12
-10 24 -34 27 -51 17 -112 61 -307 73 -326 17 -26 50 -29 63 -4 16 30 -52 370
-84 418 -8 13 -41 42 -73 65 -79 58 -170 147 -192 189 -33 64 -71 204 -81 294
-16 155 12 239 100 301 36 25 51 30 96 29 72 -2 130 -33 210 -112 116 -114
195 -250 299 -515 42 -107 106 -315 106 -344 0 -6 -22 -27 -49 -47 -107 -79
-182 -219 -184 -342 -2 -90 32 -161 113 -238 71 -67 120 -93 208 -106 115 -18
214 6 333 83 103 66 147 141 99 167 -25 13 -35 8 -81 -44 -20 -23 -70 -59
-110 -81 -66 -35 -83 -40 -160 -43 -71 -4 -94 -1 -132 16 -65 29 -152 114
-173 168 -35 93 5 221 100 318 89 90 210 110 362 58 159 -55 235 -116 294
-236 66 -133 84 -235 85 -471 0 -213 -6 -258 -59 -414 -28 -81 -100 -218 -149
-283 -92 -123 -102 -149 -64 -172 25 -16 42 -2 119 105 84 116 159 266 193
382 13 49 27 92 30 97 3 5 20 4 38 -1 17 -5 66 -19 107 -30 130 -35 132 -62
10 -181 -104 -102 -108 -116 -65 -215 14 -31 24 -62 21 -68 -2 -7 -31 -21 -63
-33 -78 -28 -101 -54 -117 -133 l-13 -64 -145 0 c-130 0 -148 -2 -167 -19 -17
-16 -21 -30 -20 -68 2 -26 0 -50 -3 -54 -4 -3 -33 0 -65 6 -125 26 -285 86
-457 172 -253 127 -299 142 -406 135 -47 -3 -155 -19 -240 -36 -213 -41 -245
-44 -325 -31 -90 14 -131 40 -146 90 -10 33 -9 47 5 83 9 23 16 46 16 50 0 12
-84 -4 -100 -19 -10 -10 -15 -35 -15 -78 0 -86 34 -138 119 -180 51 -26 72
-30 165 -34 91 -3 133 1 293 32 295 57 303 55 613 -99 200 -99 369 -159 498
-176 37 -5 135 -31 218 -59 l151 -50 1628 0 c896 0 1635 3 1644 6 9 3 16 12
16 20 0 8 4 14 9 14 5 0 11 8 15 17 3 10 16 34 28 53 110 177 178 340 178 426
0 26 -1 26 -52 19 -133 -16 -231 -16 -311 0 -88 17 -137 33 -137 45 0 4 -24
20 -52 35 -82 45 -181 147 -288 298 -8 12 -30 36 -47 54 -18 17 -33 36 -33 42
0 5 -15 25 -34 43 -68 67 -110 297 -87 483 6 46 14 92 19 102 5 10 17 32 26
50 9 17 16 39 16 48 0 9 20 56 45 104 25 48 45 92 45 97 0 8 33 53 90 121 6 7
10 16 10 21 0 4 18 21 41 38 112 80 113 94 23 214 -23 30 -58 81 -78 112 -36
57 -36 58 -11 48 36 -14 70 -3 86 27 20 38 12 68 -43 163 -27 47 -53 92 -58
100 -57 99 -106 177 -122 194 -25 27 -61 86 -56 91 5 5 99 -15 189 -40 63 -18
68 -18 93 -2 21 14 26 25 26 61 0 35 -9 57 -42 107 -50 75 -206 234 -269 275
-24 16 -48 33 -54 37 -22 17 -123 81 -168 106 -125 68 -108 47 -213 264 -21
43 -42 81 -46 83 -15 9 -8 26 8 20 8 -3 13 -2 10 3 -3 5 26 17 65 26 101 25
208 17 285 -20 33 -16 61 -31 64 -34 3 -3 18 -13 33 -21 16 -8 38 -24 50 -35
12 -11 50 -45 85 -75 54 -46 69 -54 101 -53 l37 2 13 -62 c26 -127 62 -187
113 -187 49 0 116 60 155 140 70 143 103 312 103 534 0 139 2 166 15 166 17 0
35 31 45 77 9 38 -11 180 -41 288 -12 44 -25 97 -30 118 -5 21 -13 45 -18 55
-5 9 -19 41 -30 71 -23 59 -21 65 29 77 14 4 30 10 35 14 6 4 37 15 70 25 130
37 214 69 313 117 56 28 102 55 102 59 0 5 4 9 9 9 6 0 30 14 54 30 25 17 48
30 52 30 10 0 264 257 300 304 47 61 145 207 145 217 0 5 15 32 33 61 18 29
38 69 46 88 7 19 24 64 38 100 14 36 31 93 38 128 8 34 16 66 19 71 17 27 71
380 102 656 8 74 32 247 49 350 8 50 28 178 45 285 34 215 55 334 69 395 5 22
19 90 31 150 35 174 76 311 158 525 5 14 10 30 12 35 1 6 7 17 14 25 7 8 23
37 35 63 12 27 26 54 32 60 15 19 59 87 59 93 0 3 11 22 25 42 30 44 32 73 6
96 -29 27 -343 36 -661 20 -278 -14 -459 -35 -635 -74 -27 -6 -85 -17 -129
-25 -93 -16 -173 -34 -201 -45 -11 -4 -63 -18 -115 -30 -52 -12 -135 -35 -184
-51 -49 -16 -99 -31 -110 -33 -52 -10 -482 -194 -570 -243 -32 -18 -61 -31
-64 -28 -3 3 -15 -3 -26 -14 -25 -23 -116 -71 -133 -71 -7 0 -13 -4 -13 -8 0
-5 -12 -15 -27 -23 -16 -7 -39 -21 -53 -30 -81 -53 -124 -79 -131 -79 -4 0
-34 22 -66 49 -75 63 -129 91 -173 91 -39 0 -53 -15 -65 -69 -4 -19 -10 -29
-14 -24 -3 5 -37 31 -76 58 -38 26 -95 67 -125 90 -49 37 -128 84 -255 152
-22 12 -41 30 -43 40 -2 10 -7 27 -12 38 -5 11 -20 52 -35 90 -14 39 -45 108
-68 154 -23 47 -41 89 -40 93 2 4 -1 8 -6 8 -5 0 -39 55 -76 123 -36 67 -79
145 -96 172 -16 28 -32 58 -35 68 -4 9 -10 17 -15 17 -5 0 -9 5 -9 11 0 5 -20
39 -45 75 -25 35 -45 69 -45 75 0 5 -4 8 -8 5 -4 -3 -17 12 -28 32 -10 20 -32
52 -48 69 -16 18 -34 41 -40 52 -16 27 -62 85 -134 169 -213 247 -393 363
-455 294z m4873 -1399 c-45 -79 -105 -219 -155 -364 -95 -274 -232 -1013 -306
-1654 -52 -456 -95 -642 -195 -860 -86 -188 -301 -451 -474 -581 -111 -84
-296 -175 -440 -218 -63 -19 -136 -43 -162 -53 -45 -17 -47 -17 -82 2 -22 12
-53 45 -79 85 -73 109 -71 97 -32 199 46 119 74 235 82 344 3 48 9 87 13 87 4
0 29 -24 57 -52 114 -121 144 -137 184 -97 21 21 21 29 16 133 -4 71 -15 148
-33 214 l-27 104 50 51 c105 108 158 189 195 296 20 56 23 86 23 202 0 121 -2
139 -19 158 -25 28 -62 27 -80 -1 -8 -13 -27 -54 -41 -91 -56 -150 -115 -231
-190 -263 -66 -27 -156 1 -236 73 -138 125 -140 389 -7 748 85 231 198 435
325 588 125 151 211 238 398 405 78 69 343 245 465 309 103 53 267 128 425
194 134 55 359 130 363 120 1 -4 -16 -40 -38 -78z m-5467 -1093 c39 -31 54
-110 38 -210 -16 -103 -64 -289 -102 -396 -35 -94 -33 -130 5 -140 14 -3 37 1
54 10 51 26 53 19 16 -46 -110 -197 -151 -297 -200 -498 -60 -249 -87 -547
-66 -715 6 -44 8 -82 6 -85 -3 -2 -99 -6 -214 -8 l-209 -4 -10 23 c-9 21 -30
160 -62 414 -17 139 -29 326 -39 643 l-11 323 23 19 c13 11 49 36 80 56 54 33
59 40 74 92 21 79 34 109 56 137 28 36 62 33 82 -9 9 -19 16 -41 16 -51 0 -25
29 -75 44 -75 33 0 57 38 85 135 64 224 127 327 236 383 51 27 66 27 98 2z
m707 -451 c49 -16 74 -42 104 -109 38 -83 47 -146 47 -310 1 -173 -28 -336
-90 -507 -38 -108 -126 -298 -177 -383 -51 -87 -204 -307 -242 -350 l-39 -44
-54 12 c-30 7 -132 21 -228 32 -96 10 -178 23 -184 29 -5 5 -11 89 -14 187 -4
136 -1 208 11 299 34 242 106 510 168 625 90 167 153 269 186 305 54 60 179
159 238 189 82 42 189 52 274 25z m-1634 -17 c30 -19 45 -188 64 -717 10 -280
23 -425 61 -693 12 -79 18 -146 15 -149 -3 -4 -36 9 -73 27 -78 38 -168 70
-195 70 -25 0 -33 24 -52 170 -9 69 -22 166 -28 215 -8 53 -12 210 -12 385 0
265 2 306 22 399 41 194 135 334 198 293z m-283 -1427 c27 -11 20 -21 -25 -35
-24 -8 -50 -20 -59 -27 -9 -7 -25 -11 -35 -7 -13 4 -15 3 -6 -3 9 -7 2 -18
-28 -42 -35 -28 -43 -31 -58 -19 -37 28 -117 94 -129 105 -13 11 2 19 72 37
29 7 247 0 268 -9z m262 -157 c44 -19 113 -56 153 -82 l73 -47 292 2 c226 2
327 -1 447 -14 171 -20 352 -56 350 -72 0 -5 -31 -20 -68 -33 -92 -31 -283
-126 -311 -156 -15 -16 -21 -31 -17 -44 12 -36 36 -34 105 6 123 73 387 172
459 172 23 0 120 -71 201 -146 l55 -51 -34 -46 -35 -46 -215 0 c-119 0 -227
-4 -241 -9 -34 -13 -52 -37 -45 -60 6 -18 18 -19 203 -18 123 1 197 -3 199 -9
3 -11 -150 -151 -231 -211 -80 -60 -235 -159 -305 -194 -144 -73 -336 -105
-470 -80 -111 21 -279 107 -372 191 -56 51 -100 64 -112 33 -10 -25 1 -48 34
-72 61 -46 28 -67 -100 -67 -64 0 -85 5 -143 34 -42 20 -96 58 -138 98 -58 55
-78 84 -119 167 -53 107 -86 222 -93 321 -6 91 29 275 53 275 4 0 30 -24 59
-54 45 -49 51 -60 51 -98 0 -56 40 -137 88 -179 43 -38 159 -94 228 -109 74
-17 201 -16 265 3 66 20 132 65 159 110 24 38 26 113 6 160 -47 109 -206 201
-387 222 -76 8 -200 -18 -263 -56 l-49 -30 -54 53 c-29 29 -53 60 -53 69 0 20
62 72 112 94 56 26 168 14 263 -27z m1995 -578 c0 -5 -4 -10 -10 -10 -5 0 -10
5 -10 10 0 6 5 10 10 10 6 0 10 -4 10 -10z m833 -47 c24 -38 67 -144 67 -164
0 -7 -17 -9 -49 -4 -46 6 -50 5 -73 -25 l-25 -31 -89 34 c-118 46 -305 109
-428 145 -55 15 -101 33 -103 39 -3 7 20 3 59 -9 137 -43 357 -32 528 27 88
30 87 30 113 -12z m-528 -154 c90 -27 241 -80 357 -127 l93 -37 0 -95 c0 -52
-3 -103 -7 -112 -7 -16 -10 -15 -33 8 -23 23 -28 24 -46 12 -13 -8 -32 -47
-49 -98 -36 -109 -134 -335 -184 -425 -66 -118 -182 -250 -278 -316 -58 -40
-229 -129 -247 -129 -16 0 -15 3 40 95 79 131 90 177 48 190 -28 9 -44 -7 -87
-89 -78 -149 -220 -307 -326 -364 -152 -80 -324 -84 -471 -9 -158 80 -325 284
-426 522 -44 106 -51 115 -86 115 -30 0 -38 -35 -19 -82 21 -50 7 -55 -57 -21
-183 97 -358 297 -447 510 -17 40 -28 77 -26 82 3 5 24 11 47 15 23 4 63 16
90 27 l48 21 83 -45 c94 -50 180 -82 253 -92 68 -10 79 -17 118 -78 65 -100
88 -160 142 -362 55 -210 92 -291 164 -358 78 -73 146 -100 263 -105 71 -3
109 0 145 12 120 40 325 209 407 336 56 86 155 301 207 447 53 152 77 264 90
438 6 77 13 145 15 152 3 13 16 10 179 -38z m-370 -379 c3 -5 -1 -10 -10 -10
-9 0 -13 5 -10 10 3 6 8 10 10 10 2 0 7 -4 10 -10z m35 0 c0 -5 -5 -10 -11
-10 -5 0 -7 5 -4 10 3 6 8 10 11 10 2 0 4 -4 4 -10z m-1127 -107 c-7 -2 -19
-2 -25 0 -7 3 -2 5 12 5 14 0 19 -2 13 -5z m1082 -71 c-19 -55 -120 -283 -147
-330 -90 -163 -298 -342 -434 -372 -53 -12 -172 8 -228 38 -56 30 -111 97
-128 155 l-12 40 97 93 c54 51 117 107 140 123 81 58 229 143 290 168 205 81
415 147 429 134 4 -3 1 -25 -7 -49z m-488 12 c-3 -3 -12 -4 -19 -1 -8 3 -5 6
6 6 11 1 17 -2 13 -5z m-167 -78 c0 -3 -4 -8 -10 -11 -5 -3 -10 -1 -10 4 0 6
5 11 10 11 6 0 10 -2 10 -4z m-40 -35 c0 -6 -4 -13 -10 -16 -5 -3 -10 1 -10 9
0 9 5 16 10 16 6 0 10 -4 10 -9z m-45 -41 c-3 -5 -12 -10 -18 -10 -7 0 -6 4 3
10 19 12 23 12 15 0z m-248 -1666 c49 -27 75 -51 108 -97 99 -139 94 -138 218
-43 111 85 163 106 259 106 260 0 479 -237 656 -710 64 -170 92 -259 137 -435
35 -139 53 -245 42 -245 -24 0 -244 -63 -292 -83 -46 -19 -65 -23 -89 -15 -17
5 -80 22 -141 39 -60 17 -111 32 -113 34 -3 2 -5 89 -7 192 -3 262 -27 377
-117 549 -77 146 -345 285 -525 271 l-62 -5 -21 72 c-49 161 -73 235 -106 314
-19 45 -34 84 -34 87 0 12 28 2 87 -31z m-848 -96 c5 -18 15 -48 23 -67 13
-32 12 -34 -22 -63 -115 -99 -184 -148 -193 -139 -5 5 -7 40 -5 77 l4 68 84
78 c45 43 86 78 91 78 4 0 12 -15 18 -32z"/>
<path d="M0 4542 l0 -57 63 -55 c435 -378 514 -466 546 -618 16 -76 13 -236
-5 -307 -28 -104 -29 -132 -5 -144 17 -9 24 -8 40 8 47 47 82 258 63 387 -6
43 -8 82 -6 86 14 22 160 -19 171 -48 3 -9 -13 -31 -42 -56 -90 -79 -80 -124
35 -159 39 -11 68 -25 65 -29 -3 -5 -43 -33 -88 -64 -46 -31 -89 -67 -97 -80
-20 -38 3 -86 86 -184 40 -48 74 -90 74 -94 0 -7 -35 -19 -107 -38 -53 -13
-98 -51 -124 -102 -11 -22 -39 -59 -62 -82 -59 -58 -120 -85 -319 -141 -87
-24 -98 -59 -48 -160 38 -75 39 -130 5 -228 -46 -130 -145 -264 -213 -288 -30
-10 -32 -14 -32 -56 l0 -46 39 6 c54 7 115 50 172 122 26 33 48 63 48 67 1 4
12 23 25 43 14 20 32 59 41 88 9 29 19 59 22 67 3 8 8 22 11 30 3 8 6 49 6 90
0 72 -16 135 -39 153 -12 8 12 27 35 27 21 0 147 47 195 72 22 12 51 27 65 34
35 18 91 80 123 136 15 26 36 52 46 58 48 25 120 42 199 46 81 3 351 -14 537
-36 97 -11 325 -31 380 -33 29 -2 40 2 43 14 4 21 -103 109 -133 109 -16 0
-26 8 -31 23 -3 12 -27 45 -51 72 -71 78 -79 88 -98 120 -10 17 -26 39 -36 50
-17 20 -81 144 -117 225 -63 147 -108 352 -92 425 3 16 4 41 0 55 -6 24 -10
25 -70 24 -36 0 -114 -11 -175 -23 -60 -12 -130 -26 -155 -31 -113 -22 -228
-52 -278 -71 -36 -14 -37 -13 -80 59 -42 70 -151 187 -282 302 -41 36 -84 75
-97 88 -13 12 -27 22 -31 22 -4 0 -26 20 -49 44 -38 40 -157 136 -168 136 -3
0 -5 -26 -5 -58z"/>
<path d="M3617 1773 c-123 -118 -218 -181 -294 -198 -37 -7 -41 -23 -16 -61
20 -31 47 -28 125 11 62 31 64 31 71 -2 12 -54 39 -435 33 -458 -4 -16 -18
-27 -43 -36 -21 -6 -43 -16 -49 -21 -15 -11 -28 -78 -17 -88 4 -4 45 6 90 22
87 32 94 40 108 120 5 36 -15 317 -35 472 -5 43 -7 83 -4 88 4 5 44 46 91 91
68 65 83 86 81 106 -2 20 -9 27 -31 29 -22 3 -42 -11 -110 -75z"/>
<path d="M2825 688 c-11 -34 -87 -256 -95 -278 -18 -48 -110 -381 -110 -397 0
-9 16 -13 49 -13 l49 0 16 48 c8 26 31 105 51 177 20 72 56 186 79 255 64 186
63 176 17 200 -47 24 -50 24 -56 8z"/>
</g>
</svg>
